<svg id="visual" viewBox="0 0 900 600" xmlns="http://www.w3.org/2000/svg" xmlns:xlink="http://www.w3.org/1999/xlink" version="1.1"><rect x="0" y="0" width="900" height="600" fill="#021321"></rect><defs><linearGradient id="grad1_0" x1="33.3%" y1="0%" x2="100%" y2="100%"><stop offset="20%" stop-color="#021321" stop-opacity="1"></stop><stop offset="80%" stop-color="#021321" stop-opacity="1"></stop></linearGradient></defs><defs><linearGradient id="grad2_0" x1="0%" y1="0%" x2="66.7%" y2="100%"><stop offset="20%" stop-color="#021321" stop-opacity="1"></stop><stop offset="80%" stop-color="#021321" stop-opacity="1"></stop></linearGradient></defs><g transform="translate(900, 0)"><path d="M0 459.7C-75.5 440 -151.1 420.4 -222 384.5C-292.9 348.7 -359.3 296.6 -398.1 229.9C-437 163.1 -448.3 81.5 -459.7 0L0 0Z" fill="#cc8b29"></path></g><g transform="translate(0, 600)"><path d="M0 -459.7C76.1 -441 152.1 -422.2 223 -386.2C293.9 -350.3 359.5 -297.1 398.1 -229.9C436.7 -162.6 448.2 -81.3 459.7 0L0 0Z" fill="#cc8b29"></path></g></svg>