<svg id="visual" viewBox="0 0 960 540" xmlns="http://www.w3.org/2000/svg" xmlns:xlink="http://www.w3.org/1999/xlink" version="1.1"><rect x="0" y="0" width="960" height="540" fill="#001220"></rect><defs><linearGradient id="grad1_0" x1="43.8%" y1="0%" x2="100%" y2="100%"><stop offset="14.444444444444446%" stop-color="#001220" stop-opacity="1"></stop><stop offset="85.55555555555554%" stop-color="#001220" stop-opacity="1"></stop></linearGradient></defs><defs><linearGradient id="grad2_0" x1="0%" y1="0%" x2="56.3%" y2="100%"><stop offset="14.444444444444446%" stop-color="#001220" stop-opacity="1"></stop><stop offset="85.55555555555554%" stop-color="#001220" stop-opacity="1"></stop></linearGradient></defs><g transform="translate(960, 0)"><path d="M0 486C-48.2 443.6 -96.5 401.2 -159.2 384.3C-221.9 367.5 -299.1 376.1 -343.7 343.7C-388.2 311.2 -400.2 237.5 -418.5 173.4C-436.8 109.2 -461.4 54.6 -486 0L0 0Z" fill="#FBAE3C"></path></g><g transform="translate(0, 540)"><path d="M0 -486C70 -485.3 140.1 -484.7 186 -449C231.9 -413.3 253.8 -342.6 295.6 -295.6C337.4 -248.5 399.2 -225.2 434.2 -179.9C469.3 -134.5 477.6 -67.3 486 0L0 0Z" fill="#FBAE3C"></path></g></svg>
