<svg id="visual" viewBox="0 0 960 540" xmlns="http://www.w3.org/2000/svg" xmlns:xlink="http://www.w3.org/1999/xlink" version="1.1"><rect x="0" y="0" width="960" height="540" fill="#001220"></rect><defs><linearGradient id="grad1_0" x1="43.8%" y1="0%" x2="100%" y2="100%"><stop offset="14.444444444444446%" stop-color="#001220" stop-opacity="1"></stop><stop offset="85.55555555555554%" stop-color="#001220" stop-opacity="1"></stop></linearGradient></defs><defs><linearGradient id="grad2_0" x1="0%" y1="0%" x2="56.3%" y2="100%"><stop offset="14.444444444444446%" stop-color="#001220" stop-opacity="1"></stop><stop offset="85.55555555555554%" stop-color="#001220" stop-opacity="1"></stop></linearGradient></defs><g transform="translate(960, 0)"><path id="curve1" d="M0 486C-48.2 443.6 -96.5 401.2 -159.2 384.3C-221.9 367.5 -299.1 376.1 -343.7 343.7C-388.2 311.2 -400.2 237.5 -418.5 173.4C-436.8 109.2 -461.4 54.6 -486 0L0 0Z" fill="#FBAE3C"></path></g><g transform="translate(0, 540)"><path id="curve1" d="M0 -486C70 -485.3 140.1 -484.7 186 -449C231.9 -413.3 253.8 -342.6 295.6 -295.6C337.4 -248.5 399.2 -225.2 434.2 -179.9C469.3 -134.5 477.6 -67.3 486 0L0 0Z" fill="#FBAE3C"></path></g><g transform="translate(900, 0)" style="visibility: hidden"><path id="curve2" d="M0 486.7C-57.5 465 -114.9 443.3 -175.3 423.1C-235.6 403 -298.8 384.3 -344.2 344.2C-389.6 304 -417.1 242.3 -437.9 181.4C-458.7 120.4 -472.7 60.2 -486.7 0L0 0Z" fill="#FBAE3C"></path></g><g transform="translate(0, 600)" style="visibility: hidden"><path id="curve2" d="M0 -486.7C59.7 -459.8 119.4 -432.8 165.7 -400C212 -367.3 244.9 -328.7 295.6 -295.6C346.3 -262.4 414.9 -234.6 449.7 -186.3C484.5 -137.9 485.6 -69 486.7 0L0 0Z" fill="#FBAE3C"></path></g></svg>
